<?xml version="1.0" encoding="UTF-8" standalone="no"?>
<svg
   width="700pt"
   height="700pt"
   version="1.1"
   viewBox="0 0 700 700"
   id="svg2607"
   sodipodi:docname="logo.svg"
   xml:space="preserve"
   inkscape:version="1.2 (dc2aedaf03, 2022-05-15)"
   inkscape:export-filename="8.png"
   inkscape:export-xdpi="1"
   inkscape:export-ydpi="1"
   xmlns:inkscape="http://www.inkscape.org/namespaces/inkscape"
   xmlns:sodipodi="http://sodipodi.sourceforge.net/DTD/sodipodi-0.dtd"
   xmlns:xlink="http://www.w3.org/1999/xlink"
   xmlns="http://www.w3.org/2000/svg"
   xmlns:svg="http://www.w3.org/2000/svg"><defs
     id="defs2611"><color-profile
       name="Samsung-C24RG5xFQ"
       xlink:href="file:///C:/WINDOWS/system32/spool/drivers/color/C24RG5xFQ.icm"
       id="color-profile5273" /></defs><sodipodi:namedview
     id="namedview2609"
     pagecolor="#ffffff"
     bordercolor="#000000"
     borderopacity="0.25"
     inkscape:showpageshadow="2"
     inkscape:pageopacity="0.0"
     inkscape:pagecheckerboard="true"
     inkscape:deskcolor="#cecece"
     inkscape:document-units="pt"
     showgrid="false"
     inkscape:zoom="0.35355339"
     inkscape:cx="172.53405"
     inkscape:cy="316.78384"
     inkscape:window-width="1920"
     inkscape:window-height="1009"
     inkscape:window-x="-8"
     inkscape:window-y="-8"
     inkscape:window-maximized="1"
     inkscape:current-layer="svg2607" /><circle
     style="fill:#14213d;stroke-width:0.75;fill-opacity:1"
     id="path3145"
     cx="350"
     cy="350"
     r="350" /><circle
     style="fill:#14213d;fill-opacity:1;stroke-width:0.75"
     id="path3145-3"
     cx="350"
     cy="350"
     r="350" /><circle
     style="fill:#fca311;fill-opacity:1;stroke-width:1.69489"
     id="path6105"
     cx="400"
     cy="300"
     r="300" /><path
     id="path9292"
     style="stroke-width:1.40233"
     d="m 606.36009,-52.990252 c -0.38035,0.01135 -0.75547,0.05227 -1.13233,0.0835 1.00735,-0.08341 2.02562,-0.116885 3.05274,-0.05566 -0.64326,-0.03834 -1.28368,-0.04684 -1.92041,-0.02783 z m 1.92041,0.02783 c 1.28651,0.07668 2.58218,0.270352 3.87012,0.588867 -1.28794,-0.318515 -2.58361,-0.512186 -3.87012,-0.588867 z m 3.87012,0.588867 c 1.28509,0.317795 2.50514,0.746233 3.65039,1.270019 -1.14526,-0.523796 -2.3653,-0.952224 -3.65039,-1.270019 z m 3.65039,1.270019 c 1.14524,0.523787 2.21525,1.143629 3.20215,1.844239 -0.98692,-0.700628 -2.0569,-1.320442 -3.20215,-1.844239 z m 3.20215,1.844239 c 0.98113,0.696523 1.87865,1.474837 2.68505,2.317382 -0.8066,-0.842836 -1.70362,-1.62065 -2.68505,-2.317382 z m -14.23243,-3.61377 c -0.95152,0.09921 -1.88547,0.268413 -2.80225,0.489258 0.91635,-0.220686 1.85118,-0.39009 2.80225,-0.489258 z m -3.33253,0.622559 c -0.9094,0.243818 -1.79682,0.539399 -2.65429,0.896484 0.85705,-0.356889 1.74535,-0.652753 2.65429,-0.896484 z m -3.0542,1.07666 c -0.89311,0.394235 -1.76146,0.831423 -2.57812,1.341797 0.81629,-0.510135 1.68545,-0.947698 2.57812,-1.341797 z m -2.57812,1.341797 c -0.81582,0.509845 -1.57552,1.090699 -2.29834,1.708008 0.72269,-0.617165 1.48269,-1.198272 2.29834,-1.708008 z m -2.62354,1.981933 c -0.67626,0.604658 -1.29796,1.258482 -1.87207,1.952637 0.57387,-0.693858 1.19614,-1.348207 1.87207,-1.952637 z m 28.53664,0.938965 c 0.80348,0.843545 1.5163,1.751044 2.12695,2.711426 -0.61054,-0.960182 -1.32367,-1.868024 -2.12695,-2.711426 z m 2.12695,2.711426 c 0.61257,0.963406 1.12174,1.978602 1.52197,3.030762 -0.40019,-1.051744 -0.90961,-2.067708 -1.52197,-3.030762 z m -32.84327,-1.313965 c -0.55414,0.709908 -1.05657,1.456311 -1.49121,2.24707 0.43438,-0.790308 0.93747,-1.537525 1.49121,-2.24707 z m -1.68164,2.625 c -0.43479,0.84163 -0.81855,1.712839 -1.10303,2.633789 0.28434,-0.920479 0.66855,-1.792555 1.10303,-2.633789 z m 36.05421,1.73877 c 0.39921,1.053499 0.68887,2.144512 0.85693,3.257812 -0.16816,-1.1138 -0.45742,-2.203867 -0.85693,-3.257812 z m 0.85693,3.257812 c 0.1685,1.116232 0.21564,2.255613 0.1333,3.402832 0.0823,-1.14723 0.0352,-2.286582 -0.1333,-3.402832 z m 0.1333,3.402832 c -0.0823,1.147219 -0.29431,2.302133 -0.646,3.451172 0.35169,-1.14904 0.56367,-2.303941 0.646,-3.451172 z m -0.646,3.451172 c -1.41641,4.713532 -3.02091,9.449651 -4.72412,14.15625 1.70342,-4.706319 3.30771,-9.442725 4.72412,-14.15625 z m -41.7671,3.503906 c -0.0331,0.09232 -0.0664,0.184559 -0.0996,0.276856 0.0332,-0.09238 0.0665,-0.184458 0.0996,-0.276856 z m 36.9463,10.92041 c -1.69705,4.677947 -3.49091,9.326936 -5.30127,13.8940454 1.81049,-4.5674441 3.60391,-9.2160224 5.30127,-13.8940454 z m -5.30127,13.8940454 c -2.20924,5.5705421 -4.51799,11.1179734 -6.91992,16.6376936 2.40176,-5.5196462 4.71073,-11.0672621 6.91992,-16.6376936 z m -87.92141,2.34228499 c -0.62769,-0.0145016 -1.25446,-0.001346 -1.87793,0.0380859 0.83124,-0.0525721 1.66889,-0.0392447 2.50634,0.004395 -0.20953,-0.0109197 -0.41901,-0.0376426 -0.62841,-0.0424809 z m -1.87793,0.0380859 c -0.71493,0.0452153 -1.4224,0.13440192 -2.12549,0.24902344 0.70249,-0.11447924 1.41116,-0.20384572 2.12549,-0.24902344 z m 3.12744,0.0454102 c 1.67484,0.13576424 3.34325,0.46952552 4.96875,1.0078125 -1.62584,-0.53843428 -3.29354,-0.87213136 -4.96875,-1.0078125 z m -5.88428,0.32666015 c -0.49596,0.09605778 -0.98757,0.20531143 -1.47363,0.33544922 0.48595,-0.13010838 0.97778,-0.23941283 1.47363,-0.33544922 z m -2.15771,0.53173829 c -0.48866,0.1484881 -0.96815,0.31666837 -1.44287,0.49951187 0.47424,-0.18266044 0.95471,-0.35114384 1.44287,-0.49951187 z m 13.61865,0.3618164 c 0.80763,0.29546427 1.60812,0.62316447 2.38476,1.02392597 -0.77685,-0.4008694 -1.57695,-0.728436 -2.38476,-1.02392597 z m 2.38476,1.02392597 c 2.32708,1.2008199 4.2721,2.7668205 5.79639,4.5703125 -1.52425,-1.803589 -3.4693,-3.3694914 -5.79639,-4.5703125 z m 5.79639,4.5703125 c 0.76214,0.901746 1.41873,1.8621487 1.96582,2.8666992 -0.54706,-1.004611 -1.2037,-1.9649047 -1.96582,-2.8666992 z m 1.96582,2.8666992 c 0.54709,1.004549 0.98418,2.053458 1.30664,3.128904 -0.32243,-1.07551 -0.75958,-2.124295 -1.30664,-3.128904 z m 1.30664,3.128904 c 0.32246,1.075446 0.5299,2.178536 0.61817,3.292969 -0.0882,-1.114493 -0.29574,-2.217458 -0.61817,-3.292969 z m 0.61817,3.292969 c 0.0883,1.114433 0.0574,2.240306 -0.0981,3.361816 0.15553,-1.121558 0.18638,-2.247323 0.0981,-3.361816 z m -0.0981,3.361816 c -0.15551,1.121511 -0.4349,2.238771 -0.84375,3.33545 0.40887,-1.096708 0.68822,-2.213891 0.84375,-3.33545 z m -0.84375,3.33545 c -0.40885,1.096678 -0.94688,2.172464 -1.61865,3.212402 0.67177,-1.039939 1.20979,-2.115695 1.61865,-3.212402 z M 518.8752,1.2807457 c -0.65138,0.2729385 -1.29207,0.5692607 -1.90871,0.9067383 0.6167,-0.3375711 1.25725,-0.6337341 1.90871,-0.9067383 z m -1.90871,0.9067383 c -0.61442,0.3362669 -1.2022,0.7130905 -1.77539,1.1118164 0.57292,-0.3985634 1.16128,-0.7756607 1.77539,-1.1118164 z m -2.26171,1.4736328 c -0.40553,0.3016247 -0.79938,0.6172793 -1.1792,0.9506836 0.37966,-0.3332815 0.77386,-0.6491556 1.1792,-0.9506836 z m -1.68458,1.4121094 c -0.36757,0.3476999 -0.71802,0.7126902 -1.05615,1.0913086 0.33799,-0.3785206 0.68875,-0.7436833 1.05615,-1.0913086 z m -1.45898,1.5410156 c -0.452,0.542156 -0.88109,1.1052706 -1.26855,1.7050781 0.38724,-0.599468 0.81686,-1.1631858 1.26855,-1.7050781 z m 96.98735,7.5996072 c -2.40561,5.519357 -4.90481,11.010556 -7.49709,16.466309 2.5922,-5.455943 5.09154,-10.94677 7.49709,-16.466309 z m -7.49709,16.466309 c -2.60386,5.480153 -5.30122,10.925323 -8.0874,16.328613 2.78629,-5.403722 5.4835,-10.848004 8.0874,-16.328613 z m -97.32717,-12.1875 C 471.2081,68.837795 438.71568,119.19476 406.2023,169.53709 c -10.06275,-3.38661 -20.51953,-5.85259 -31.11183,-7.48535 -6.43089,-0.99235 -12.99983,0.96448 -17.46973,5.21192 -2.53602,2.39298 -4.33631,5.4579 -5.01709,8.9458 -0.64524,3.30876 -0.19171,6.56345 1.11914,9.46435 1.23747,2.75546 3.26917,5.20358 5.85645,7.0708 1.7075,1.32364 2.6034,3.02362 3.1333,4.98926 1.39321,5.11415 0.43524,11.72353 -0.85987,17.12549 -12.09477,-2.46792 -25.16308,-1.87415 -33.79395,7.28174 -7.0207,7.44 -7.4352,17.24742 -4.83252,26.2998 1.23135,4.27714 3.09677,8.55939 5.22363,12.68262 -3.00516,3.23316 -6.03336,6.44811 -9.0586,9.6709 -28.92948,30.77069 -70.15918,73.06718 -69.56692,115.4956 0.20002,14.53269 5.16311,27.86296 14.4126,39.82325 10.74106,13.89641 26.22582,24.59073 42.45412,32.96484 20.312,10.48142 43.11974,18.29117 66.53616,20.59131 20.88677,2.05342 42.98052,-0.3412 61.24954,-10.13379 15.56138,-8.33633 26.55656,-21.21326 31.04591,-36.9668 4.57924,-16.07914 1.85549,-32.87793 -4.49269,-48.25049 -8.48829,-20.57349 -15.05439,-41.7809 -19.5249,-63.34277 -3.04862,-14.71096 -5.9071,-31.16688 -6.69141,-46.89844 9.49241,-1.57204 18.67428,-4.78629 26.02588,-10.51318 10.45296,-8.14459 15.08658,-19.74052 13.57765,-31.97754 -1.20954,-9.82121 -6.20273,-19.07719 -12.75294,-26.94873 52.77434,-36.70902 93.08401,-88.50139 122.58989,-141.394046 -10.0473,-7.78581 -20.53535,-14.984857 -31.4883,-21.434657 -0.91731,1.696881 -1.87368,3.45586 -2.80956,5.142665 -23.75437,42.811473 -55.39796,85.510348 -95.87553,118.063478 l 0.003,-0.009 C 482.27064,121.35121 510.49891,77.63447 538.69219,33.984068 527.39583,28.064559 515.68163,22.927846 503.72431,18.492658 Z m 89.16507,28.661133 c -2.78729,5.401594 -5.67181,10.777911 -8.63526,16.089843 2.96324,-5.311558 5.84826,-10.688601 8.63526,-16.089843 z M 402.24575,205.83592 c 3.66958,1.60057 7.23989,3.39511 10.65235,5.3833 6.34278,3.6976 12.52807,8.31188 17.15332,13.70655 10.18833,11.88312 6.56962,14.96786 -8.87109,15.5874 l 0.003,-0.006 c -7.43081,-4.27098 -15.31828,-8.36495 -23.0464,-12.07178 2.37203,-6.9864 3.84793,-15.34942 4.10889,-22.59961 z m -22.49414,53.23828 c 5.51762,2.66201 10.96135,5.49973 16.30664,8.44922 0.61456,20.03295 3.12145,40.10921 7.19971,59.78321 4.86764,23.49512 12.04131,46.6084 21.29151,69.02783 3.52079,8.53211 5.8302,18.63976 3.26807,27.63867 -1.94938,6.83962 -6.59799,12.1303 -13.33301,15.74121 -10.73654,5.75569 -24.79647,6.59124 -36.96388,5.39502 -17.99321,-1.76807 -35.77807,-8.13479 -51.3589,-16.1748 -10.98932,-5.67072 -22.6225,-13.16284 -29.92091,-22.60987 -4.79577,-6.2062 -7.39143,-12.89751 -7.49708,-20.45068 -0.4174,-30.03174 39.23746,-70.12642 60.47903,-92.72461 10.28128,-10.93471 21.1499,-22.24931 30.52882,-34.0752 z"
     sodipodi:nodetypes="sccssccccccccccccccccccccccccccccccccccccccccccccccccccccccccccccsccsccccccccccccccccccccccccccccccccccccccccccccccccccccccccccccccccccccccccscccccccccccccccccccccsccccccccccccscccc" /></svg>
